v 0.29698285 -0.38336176 0.10929925
v 0.30000600 -0.38272837 0.11040965
v 0.30000600 -0.31404427 0.23082572
v 0.26312891 -0.38942018 0.09867766
v 0.22807615 -0.39382920 0.09094787
v 0.19225797 -0.39651188 0.08624463
v 0.15910199 -0.39740908 0.08467166
v 0.12320087 -0.39666027 0.08598448
v 0.01083355 -0.31404427 0.23082572
v 0.08796496 -0.39412400 0.09043103
v 0.05382663 -0.38983980 0.09794202
v 0.02115074 -0.38386708 0.10841329
v 0.01083355 -0.38155904 0.11245974
vn 0.00000000 -0.86863154 0.49545866
vn 0.00000000 -0.86863154 0.49545866
vn 0.00000000 -0.86863154 0.49545866
vn 0.00000000 -0.86863154 0.49545866
vn 0.00000000 -0.86863154 0.49545866
vn 0.00000000 -0.86863154 0.49545866
vn 0.00000000 -0.86863154 0.49545866
vn 0.00000000 -0.86863154 0.49545866
vn 0.00000000 -0.86863154 0.49545866
vn 0.00000000 -0.86863154 0.49545866
vn 0.00000000 -0.86863154 0.49545866
vn 0.00000000 -0.86863154 0.49545866
vn 0.00000000 -0.86863154 0.49545866
vt 0.01069346 0.09828079
vt 0.00024414 0.10270107
vt 0.00024414 0.58204943
vt 0.12770815 0.05599874
vt 0.24886647 0.02522832
vt 0.37267041 0.00650573
vt 0.48727253 0.00024414
vt 0.61136323 0.00547010
vt 0.99975586 0.58204943
vt 0.73315454 0.02317083
vt 0.85115212 0.05307037
vt 0.96409494 0.09475404
vt 0.99975586 0.11086202
f 1/1/1 2/2/2 3/3/3
f 9/9/9 13/13/13 12/12/12
f 6/6/6 5/5/5 3/3/3
f 3/3/3 5/5/5 4/4/4
f 3/3/3 4/4/4 1/1/1
f 9/9/9 8/8/8 3/3/3
f 3/3/3 8/8/8 7/7/7
f 3/3/3 7/7/7 6/6/6
f 12/12/12 11/11/11 9/9/9
f 9/9/9 11/11/11 10/10/10
f 9/9/9 10/10/10 8/8/8
