v 0.07166810 -0.00000000 0.04000080
v 0.07166810 -0.00000000 0.04166750
v 0.07813871 0.00085187 0.04000080
v 0.07813871 0.00085187 0.04166750
v 0.08416835 0.00334943 0.04000080
v 0.08416835 0.00334943 0.04166750
v 0.08934612 0.00732248 0.04000080
v 0.08934612 0.00732248 0.04166750
v 0.09331916 0.01250025 0.04000080
v 0.09331916 0.01250025 0.04166750
v 0.09581673 0.01852989 0.04000080
v 0.09581673 0.01852989 0.04166750
v 0.09666860 0.02500050 0.04000080
v 0.09666860 0.02500050 0.04166750
v 0.09581673 0.03147111 0.04000080
v 0.09581673 0.03147111 0.04166750
v 0.09331916 0.03750075 0.04000080
v 0.09331916 0.03750075 0.04166750
v 0.08934612 0.04267852 0.04000080
v 0.08934612 0.04267852 0.04166750
v 0.08416835 0.04665157 0.04000080
v 0.08416835 0.04665157 0.04166750
v 0.07813871 0.04914913 0.04000080
v 0.07813871 0.04914913 0.04166750
v 0.07166810 0.05000100 0.04000080
v 0.07166810 0.05000100 0.04166750
v 0.06519749 0.04914913 0.04000080
v 0.06519749 0.04914913 0.04166750
v 0.05916785 0.04665157 0.04000080
v 0.05916785 0.04665157 0.04166750
v 0.05399008 0.04267852 0.04000080
v 0.05399008 0.04267852 0.04166750
v 0.05001703 0.03750075 0.04000080
v 0.05001703 0.03750075 0.04166750
v 0.04751947 0.03147111 0.04000080
v 0.04751947 0.03147111 0.04166750
v 0.04666760 0.02500050 0.04000080
v 0.04666760 0.02500050 0.04166750
v 0.04751947 0.01852989 0.04000080
v 0.04751947 0.01852989 0.04166750
v 0.05001703 0.01250025 0.04000080
v 0.05001703 0.01250025 0.04166750
v 0.05399008 0.00732248 0.04000080
v 0.05399008 0.00732248 0.04166750
v 0.05916785 0.00334943 0.04000080
v 0.05916785 0.00334943 0.04166750
v 0.06519749 0.00085187 0.04000080
v 0.06519749 0.00085187 0.04166750
v 0.08416835 0.04665157 0.04000080
v 0.07813871 0.04914913 0.04000080
v 0.07166810 0.02500050 0.04000080
v 0.07166810 0.05000100 0.04000080
v 0.06519749 0.04914913 0.04000080
v 0.09581673 0.03147111 0.04000080
v 0.09331916 0.03750075 0.04000080
v 0.08934612 0.04267852 0.04000080
v 0.09331916 0.01250025 0.04000080
v 0.09581673 0.01852989 0.04000080
v 0.09666860 0.02500050 0.04000080
v 0.07813871 0.00085187 0.04000080
v 0.08416835 0.00334943 0.04000080
v 0.08934612 0.00732248 0.04000080
v 0.05916785 0.00334943 0.04000080
v 0.06519749 0.00085187 0.04000080
v 0.07166810 -0.00000000 0.04000080
v 0.04751947 0.01852989 0.04000080
v 0.05001703 0.01250025 0.04000080
v 0.05399008 0.00732248 0.04000080
v 0.05001703 0.03750075 0.04000080
v 0.04751947 0.03147111 0.04000080
v 0.04666760 0.02500050 0.04000080
v 0.05916785 0.04665157 0.04000080
v 0.05399008 0.04267852 0.04000080
v 0.07166810 -0.00833350 -0.00000000
v 0.08029557 -0.00719767 -0.00166670
v 0.08029557 -0.00719767 0.00000000
v 0.08833510 -0.00386759 -0.00166670
v 0.08833510 -0.00386759 -0.00000000
v 0.09523880 0.00142980 -0.00166670
v 0.09523880 0.00142980 -0.00000000
v 0.10053618 0.00833350 -0.00166670
v 0.10053618 0.00833350 -0.00000000
v 0.10386627 0.01637303 -0.00166670
v 0.10386627 0.01637303 -0.00000000
v 0.10500211 0.02500050 -0.00166670
v 0.10500211 0.02500050 -0.00000000
v 0.10386627 0.03362797 -0.00166670
v 0.10386627 0.03362797 0.00000000
v 0.10053618 0.04166750 -0.00166670
v 0.10053618 0.04166750 -0.00000000
v 0.09523880 0.04857120 -0.00166670
v 0.09523880 0.04857120 0.00000000
v 0.08833510 0.05386859 -0.00166670
v 0.08833510 0.05386859 -0.00000000
v 0.08029557 0.05719867 -0.00166670
v 0.08029557 0.05719867 -0.00000000
v 0.07166810 0.05833450 -0.00166670
v 0.07166810 0.05833450 -0.00000000
v 0.06304063 0.05719867 -0.00166670
v 0.06304063 0.05719867 -0.00000000
v 0.05500110 0.05386859 -0.00166670
v 0.05500110 0.05386859 -0.00000000
v 0.04809740 0.04857120 -0.00166670
v 0.04809740 0.04857120 -0.00000000
v 0.04280001 0.04166750 -0.00166670
v 0.04280001 0.04166750 0.00000000
v 0.03946993 0.03362797 -0.00166670
v 0.03946993 0.03362797 -0.00000000
v 0.03833410 0.02500050 -0.00166670
v 0.03833410 0.02500050 -0.00000000
v 0.03946993 0.01637303 -0.00166670
v 0.03946993 0.01637303 -0.00000000
v 0.04280001 0.00833350 -0.00166670
v 0.04280001 0.00833350 0.00000000
v 0.04809740 0.00142980 -0.00166670
v 0.04809740 0.00142980 -0.00000000
v 0.05500110 -0.00386759 -0.00166670
v 0.05500110 -0.00386759 -0.00000000
v 0.06304063 -0.00719767 -0.00166670
v 0.06304063 -0.00719767 -0.00000000
v 0.07166810 -0.00833350 -0.00166670
v 0.05500110 0.05386859 -0.00166670
v 0.06304063 0.05719867 -0.00166670
v 0.07166810 0.02500050 -0.00166670
v 0.07166810 0.05833450 -0.00166670
v 0.08029557 0.05719867 -0.00166670
v 0.03946993 0.03362797 -0.00166670
v 0.04280001 0.04166750 -0.00166670
v 0.04809740 0.04857120 -0.00166670
v 0.04280001 0.00833350 -0.00166670
v 0.03946993 0.01637303 -0.00166670
v 0.03833410 0.02500050 -0.00166670
v 0.06304063 -0.00719767 -0.00166670
v 0.05500110 -0.00386759 -0.00166670
v 0.04809740 0.00142980 -0.00166670
v 0.08833510 -0.00386759 -0.00166670
v 0.08029557 -0.00719767 -0.00166670
v 0.07166810 -0.00833350 -0.00166670
v 0.10386627 0.01637303 -0.00166670
v 0.10053618 0.00833350 -0.00166670
v 0.09523880 0.00142980 -0.00166670
v 0.10053618 0.04166750 -0.00166670
v 0.10386627 0.03362797 -0.00166670
v 0.10500211 0.02500050 -0.00166670
v 0.08833510 0.05386859 -0.00166670
v 0.09523880 0.04857120 -0.00166670
vn 0.00000000 1.00000000 0.00000000
vn 0.00000000 1.00000000 0.00000000
vn -0.25881904 0.96592581 0.00000000
vn -0.25881904 0.96592581 0.00000000
vn -0.50000000 0.86602539 0.00000000
vn -0.50000000 0.86602539 0.00000000
vn -0.70710677 0.70710677 0.00000000
vn -0.70710677 0.70710677 0.00000000
vn -0.86602539 0.50000000 0.00000000
vn -0.86602539 0.50000000 0.00000000
vn -0.96592581 0.25881904 0.00000000
vn -0.96592581 0.25881904 0.00000000
vn -1.00000000 0.00000000 0.00000000
vn -1.00000000 0.00000000 0.00000000
vn -0.96592581 -0.25881904 0.00000000
vn -0.96592581 -0.25881904 0.00000000
vn -0.86602539 -0.50000000 0.00000000
vn -0.86602539 -0.50000000 0.00000000
vn -0.70710677 -0.70710677 0.00000000
vn -0.70710677 -0.70710677 0.00000000
vn -0.50000000 -0.86602539 0.00000000
vn -0.50000000 -0.86602539 0.00000000
vn -0.25881904 -0.96592581 0.00000000
vn -0.25881904 -0.96592581 0.00000000
vn -0.00000000 -1.00000000 0.00000000
vn -0.00000000 -1.00000000 0.00000000
vn 0.25881904 -0.96592581 0.00000000
vn 0.25881904 -0.96592581 0.00000000
vn 0.50000000 -0.86602539 0.00000000
vn 0.50000000 -0.86602539 0.00000000
vn 0.70710677 -0.70710677 0.00000000
vn 0.70710677 -0.70710677 0.00000000
vn 0.86602539 -0.50000000 0.00000000
vn 0.86602539 -0.50000000 0.00000000
vn 0.96592581 -0.25881904 0.00000000
vn 0.96592581 -0.25881904 0.00000000
vn 1.00000000 -0.00000000 0.00000000
vn 1.00000000 -0.00000000 0.00000000
vn 0.96592581 0.25881904 0.00000000
vn 0.96592581 0.25881904 0.00000000
vn 0.86602539 0.50000000 0.00000000
vn 0.86602539 0.50000000 0.00000000
vn 0.70710677 0.70710677 0.00000000
vn 0.70710677 0.70710677 0.00000000
vn 0.50000000 0.86602539 0.00000000
vn 0.50000000 0.86602539 0.00000000
vn 0.25881904 0.96592581 0.00000000
vn 0.25881904 0.96592581 0.00000000
vn 0.00000000 -0.00000000 1.00000000
vn 0.00000000 -0.00000000 1.00000000
vn 0.00000000 -0.00000000 1.00000000
vn 0.00000000 -0.00000000 1.00000000
vn 0.00000000 -0.00000000 1.00000000
vn 0.00000000 -0.00000000 1.00000000
vn 0.00000000 -0.00000000 1.00000000
vn 0.00000000 -0.00000000 1.00000000
vn 0.00000000 -0.00000000 1.00000000
vn 0.00000000 -0.00000000 1.00000000
vn 0.00000000 -0.00000000 1.00000000
vn 0.00000000 -0.00000000 1.00000000
vn 0.00000000 -0.00000000 1.00000000
vn 0.00000000 -0.00000000 1.00000000
vn 0.00000000 -0.00000000 1.00000000
vn 0.00000000 -0.00000000 1.00000000
vn 0.00000000 -0.00000000 1.00000000
vn 0.00000000 -0.00000000 1.00000000
vn 0.00000000 -0.00000000 1.00000000
vn 0.00000000 -0.00000000 1.00000000
vn 0.00000000 -0.00000000 1.00000000
vn 0.00000000 -0.00000000 1.00000000
vn 0.00000000 -0.00000000 1.00000000
vn 0.00000000 -0.00000000 1.00000000
vn 0.00000000 -0.00000000 1.00000000
vn -0.00000000 -1.00000000 0.00000000
vn 0.25881904 -0.96592581 0.00000000
vn 0.25881904 -0.96592581 0.00000000
vn 0.50000000 -0.86602539 0.00000000
vn 0.50000000 -0.86602539 0.00000000
vn 0.70710677 -0.70710677 0.00000000
vn 0.70710677 -0.70710677 0.00000000
vn 0.86602539 -0.50000000 0.00000000
vn 0.86602539 -0.50000000 0.00000000
vn 0.96592581 -0.25881904 0.00000000
vn 0.96592581 -0.25881904 0.00000000
vn 1.00000000 -0.00000000 0.00000000
vn 1.00000000 -0.00000000 0.00000000
vn 0.96592581 0.25881904 0.00000000
vn 0.96592581 0.25881904 0.00000000
vn 0.86602539 0.50000000 0.00000000
vn 0.86602539 0.50000000 0.00000000
vn 0.70710677 0.70710677 0.00000000
vn 0.70710677 0.70710677 0.00000000
vn 0.50000000 0.86602539 0.00000000
vn 0.50000000 0.86602539 0.00000000
vn 0.25881904 0.96592581 0.00000000
vn 0.25881904 0.96592581 0.00000000
vn 0.00000000 1.00000000 0.00000000
vn 0.00000000 1.00000000 0.00000000
vn -0.25881904 0.96592581 0.00000000
vn -0.25881904 0.96592581 0.00000000
vn -0.50000000 0.86602539 0.00000000
vn -0.50000000 0.86602539 0.00000000
vn -0.70710677 0.70710677 0.00000000
vn -0.70710677 0.70710677 0.00000000
vn -0.86602539 0.50000000 0.00000000
vn -0.86602539 0.50000000 0.00000000
vn -0.96592581 0.25881904 0.00000000
vn -0.96592581 0.25881904 0.00000000
vn -1.00000000 0.00000000 0.00000000
vn -1.00000000 0.00000000 0.00000000
vn -0.96592581 -0.25881904 0.00000000
vn -0.96592581 -0.25881904 0.00000000
vn -0.86602539 -0.50000000 0.00000000
vn -0.86602539 -0.50000000 0.00000000
vn -0.70710677 -0.70710677 0.00000000
vn -0.70710677 -0.70710677 0.00000000
vn -0.50000000 -0.86602539 0.00000000
vn -0.50000000 -0.86602539 0.00000000
vn -0.25881904 -0.96592581 0.00000000
vn -0.25881904 -0.96592581 0.00000000
vn -0.00000000 -1.00000000 0.00000000
vn 0.00000000 -0.00000000 -1.00000000
vn 0.00000000 -0.00000000 -1.00000000
vn 0.00000000 -0.00000000 -1.00000000
vn 0.00000000 -0.00000000 -1.00000000
vn 0.00000000 -0.00000000 -1.00000000
vn 0.00000000 -0.00000000 -1.00000000
vn 0.00000000 -0.00000000 -1.00000000
vn 0.00000000 -0.00000000 -1.00000000
vn 0.00000000 -0.00000000 -1.00000000
vn 0.00000000 -0.00000000 -1.00000000
vn 0.00000000 -0.00000000 -1.00000000
vn 0.00000000 -0.00000000 -1.00000000
vn 0.00000000 -0.00000000 -1.00000000
vn 0.00000000 -0.00000000 -1.00000000
vn 0.00000000 -0.00000000 -1.00000000
vn 0.00000000 -0.00000000 -1.00000000
vn 0.00000000 -0.00000000 -1.00000000
vn 0.00000000 -0.00000000 -1.00000000
vn 0.00000000 -0.00000000 -1.00000000
vn 0.00000000 -0.00000000 -1.00000000
vn 0.00000000 -0.00000000 -1.00000000
vn 0.00000000 -0.00000000 -1.00000000
vn 0.00000000 -0.00000000 -1.00000000
vn 0.00000000 -0.00000000 -1.00000000
vn 0.00000000 -0.00000000 -1.00000000
f 1//1 2//2 3//3
f 3//3 2//2 4//4
f 3//3 4//4 5//5
f 5//5 4//4 6//6
f 5//5 6//6 7//7
f 7//7 6//6 8//8
f 7//7 8//8 9//9
f 9//9 8//8 10//10
f 9//9 10//10 11//11
f 11//11 10//10 12//12
f 11//11 12//12 13//13
f 13//13 12//12 14//14
f 13//13 14//14 15//15
f 15//15 14//14 16//16
f 15//15 16//16 17//17
f 17//17 16//16 18//18
f 17//17 18//18 19//19
f 19//19 18//18 20//20
f 19//19 20//20 21//21
f 21//21 20//20 22//22
f 21//21 22//22 23//23
f 23//23 22//22 24//24
f 23//23 24//24 25//25
f 25//25 24//24 26//26
f 25//25 26//26 27//27
f 27//27 26//26 28//28
f 27//27 28//28 29//29
f 29//29 28//28 30//30
f 29//29 30//30 31//31
f 31//31 30//30 32//32
f 31//31 32//32 33//33
f 33//33 32//32 34//34
f 33//33 34//34 35//35
f 35//35 34//34 36//36
f 35//35 36//36 37//37
f 37//37 36//36 38//38
f 37//37 38//38 39//39
f 39//39 38//38 40//40
f 39//39 40//40 41//41
f 41//41 40//40 42//42
f 41//41 42//42 43//43
f 43//43 42//42 44//44
f 43//43 44//44 45//45
f 45//45 44//44 46//46
f 45//45 46//46 47//47
f 47//47 46//46 48//48
f 47//47 48//48 1//1
f 1//1 48//48 2//2
f 49//49 50//50 51//51
f 51//51 50//50 52//52
f 51//51 52//52 53//53
f 54//54 55//55 51//51
f 51//51 55//55 56//56
f 51//51 56//56 49//49
f 57//57 58//58 51//51
f 51//51 58//58 59//59
f 51//51 59//59 54//54
f 60//60 61//61 51//51
f 51//51 61//61 62//62
f 51//51 62//62 57//57
f 63//63 64//64 51//51
f 51//51 64//64 65//65
f 51//51 65//65 60//60
f 66//66 67//67 51//51
f 51//51 67//67 68//68
f 51//51 68//68 63//63
f 69//69 70//70 51//51
f 51//51 70//70 71//71
f 51//51 71//71 66//66
f 53//53 72//72 51//51
f 51//51 72//72 73//73
f 51//51 73//73 69//69
f 74//74 75//75 76//76
f 76//76 75//75 77//77
f 76//76 77//77 78//78
f 78//78 77//77 79//79
f 78//78 79//79 80//80
f 80//80 79//79 81//81
f 80//80 81//81 82//82
f 82//82 81//81 83//83
f 82//82 83//83 84//84
f 84//84 83//83 85//85
f 84//84 85//85 86//86
f 86//86 85//85 87//87
f 86//86 87//87 88//88
f 88//88 87//87 89//89
f 88//88 89//89 90//90
f 90//90 89//89 91//91
f 90//90 91//91 92//92
f 92//92 91//91 93//93
f 92//92 93//93 94//94
f 94//94 93//93 95//95
f 94//94 95//95 96//96
f 96//96 95//95 97//97
f 96//96 97//97 98//98
f 98//98 97//97 99//99
f 98//98 99//99 100//100
f 100//100 99//99 101//101
f 100//100 101//101 102//102
f 102//102 101//101 103//103
f 102//102 103//103 104//104
f 104//104 103//103 105//105
f 104//104 105//105 106//106
f 106//106 105//105 107//107
f 106//106 107//107 108//108
f 108//108 107//107 109//109
f 108//108 109//109 110//110
f 110//110 109//109 111//111
f 110//110 111//111 112//112
f 112//112 111//111 113//113
f 112//112 113//113 114//114
f 114//114 113//113 115//115
f 114//114 115//115 116//116
f 116//116 115//115 117//117
f 116//116 117//117 118//118
f 118//118 117//117 119//119
f 118//118 119//119 120//120
f 120//120 119//119 121//121
f 120//120 121//121 74//74
f 74//74 121//121 75//75
f 122//122 123//123 124//124
f 124//124 123//123 125//125
f 124//124 125//125 126//126
f 127//127 128//128 124//124
f 124//124 128//128 129//129
f 124//124 129//129 122//122
f 130//130 131//131 124//124
f 124//124 131//131 132//132
f 124//124 132//132 127//127
f 133//133 134//134 124//124
f 124//124 134//134 135//135
f 124//124 135//135 130//130
f 136//136 137//137 124//124
f 124//124 137//137 138//138
f 124//124 138//138 133//133
f 139//139 140//140 124//124
f 124//124 140//140 141//141
f 124//124 141//141 136//136
f 142//142 143//143 124//124
f 124//124 143//143 144//144
f 124//124 144//144 139//139
f 126//126 145//145 124//124
f 124//124 145//145 146//146
f 124//124 146//146 142//142
