v -0.13920072 -0.21857040 0.14243311
v -0.13962306 -0.21857040 0.13985406
v -0.13964221 -0.21857040 0.13906524
v -0.13925388 -0.21857040 0.14226557
v 0.01767939 -0.21857040 0.09125287
v 0.00582372 -0.21857040 0.08998610
v 0.13964221 -0.21857040 0.00000000
v 0.03018835 -0.21857040 0.09389207
v 0.04389001 -0.21857040 0.09813779
v 0.05951453 -0.21857040 0.10440790
v 0.07815025 -0.21857040 0.11341850
v 0.08993721 -0.21857040 0.11977050
v 0.10157401 -0.21857040 0.12642443
v 0.12973773 -0.21857040 0.14369246
v 0.13017449 -0.21857040 0.14396277
v 0.13116382 -0.21857040 0.14451636
v 0.13303328 -0.21857040 0.14525676
v 0.13964221 -0.21857040 0.13906524
v 0.13941830 -0.21857040 0.14158018
v 0.13934949 -0.21857040 0.14189719
v 0.13917507 -0.21857040 0.14239845
v 0.13353646 -0.21857040 0.14545605
v 0.13399774 -0.21857040 0.14556192
v 0.13547787 -0.21857040 0.14567785
v 0.13570656 -0.21857040 0.14565921
v 0.13582081 -0.21857040 0.14563327
v 0.13883640 -0.21857040 0.14337182
v 0.13867535 -0.21857040 0.14367619
v 0.13808347 -0.21857040 0.14449081
v 0.13783081 -0.21857040 0.14473987
v 0.13713168 -0.21857040 0.14523162
v 0.13665797 -0.21857040 0.14544314
v -0.13964221 -0.21857040 0.00000000
v -0.00582372 -0.21857040 0.08998610
v -0.01767939 -0.21857040 0.09125287
v -0.03018835 -0.21857040 0.09389207
v -0.04389001 -0.21857040 0.09813779
v -0.05951453 -0.21857040 0.10440790
v -0.07815025 -0.21857040 0.11341850
v -0.08994713 -0.21857040 0.11977602
v -0.10157401 -0.21857040 0.12642443
v -0.12973773 -0.21857040 0.14369246
v -0.13208027 -0.21857040 0.14494984
v -0.13305168 -0.21857040 0.14530247
v -0.13327523 -0.21857040 0.14538363
v -0.13493578 -0.21857040 0.14567962
v -0.13598943 -0.21857040 0.14561974
v -0.13662510 -0.21857040 0.14545491
v -0.13738616 -0.21857040 0.14508101
v -0.13768280 -0.21857040 0.14486583
v -0.13789575 -0.21857040 0.14464505
v -0.13834122 -0.21857040 0.14418317
v -0.13849342 -0.21857040 0.14396988
v -0.13911451 -0.21857040 0.14270471
v -0.00582372 -0.21857040 0.08998610
v 0.00582372 -0.21857040 0.08998610
v 0.01148692 -0.15512390 0.20946330
v -0.01148692 -0.15512390 0.20946330
v 0.01767939 -0.21857040 0.09125287
v 0.03451562 -0.15643722 0.20946330
v -0.03451562 -0.15643722 0.20946330
v -0.01767939 -0.21857040 0.09125287
v 0.03018835 -0.21857040 0.09389207
v 0.05770998 -0.15908907 0.20946330
v -0.05770998 -0.15908907 0.20946330
v -0.03018835 -0.21857040 0.09389207
v 0.04389001 -0.21857040 0.09813779
v 0.08118396 -0.16313098 0.20946330
v -0.08118396 -0.16313098 0.20946330
v -0.04389001 -0.21857040 0.09813779
v 0.05951453 -0.21857040 0.10440790
v 0.10505705 -0.16864288 0.20946330
v 0.11731219 -0.17202127 0.20946330
v 0.07815025 -0.21857040 0.11341850
v 0.12945670 -0.17573652 0.20946330
v 0.08993721 -0.21857040 0.11977050
v -0.10505705 -0.16864288 0.20946330
v -0.05951453 -0.21857040 0.10440790
v -0.07815025 -0.21857040 0.11341850
v -0.11731978 -0.17202349 0.20946330
v -0.12945670 -0.17573652 0.20946330
v -0.08994713 -0.21857040 0.11977602
v -0.14886525 -0.18817183 0.20063603
v -0.10157401 -0.21857040 0.12642443
v 0.10157401 -0.21857040 0.12642443
v 0.14886525 -0.18817183 0.20063603
v 0.14887492 -0.18781224 0.20118184
v 0.14900877 -0.18248616 0.20946330
v -0.14887492 -0.18781222 0.20118186
v -0.14900877 -0.18248616 0.20946330
v 0.14847401 -0.20274515 0.17851542
v 0.12973773 -0.21857040 0.14369246
v 0.14841054 -0.20498990 0.17518550
v -0.14847401 -0.20274512 0.17851546
v -0.13323458 -0.21602991 0.14958008
v -0.12973773 -0.21857040 0.14369246
v -0.14841054 -0.20498990 0.17518550
vn 0.00000000 -1.00000000 0.00000000
vn 0.00000000 -1.00000000 0.00000000
vn 0.00000000 -1.00000000 0.00000000
vn 0.00000000 -1.00000000 0.00000000
vn 0.00000000 -1.00000000 0.00000000
vn 0.00000000 -1.00000000 0.00000000
vn 0.00000000 -1.00000000 0.00000000
vn 0.00000000 -1.00000000 0.00000000
vn 0.00000000 -1.00000000 0.00000000
vn 0.00000000 -1.00000000 0.00000000
vn 0.00000000 -1.00000000 0.00000000
vn 0.00000000 -1.00000000 0.00000000
vn 0.00000000 -1.00000000 0.00000000
vn 0.00000000 -1.00000000 0.00000000
vn 0.00000000 -1.00000000 0.00000000
vn 0.00000000 -1.00000000 0.00000000
vn 0.00000000 -1.00000000 0.00000000
vn 0.00000000 -1.00000000 0.00000000
vn 0.00000000 -1.00000000 0.00000000
vn 0.00000000 -1.00000000 0.00000000
vn 0.00000000 -1.00000000 0.00000000
vn 0.00000000 -1.00000000 0.00000000
vn 0.00000000 -1.00000000 0.00000000
vn 0.00000000 -1.00000000 0.00000000
vn 0.00000000 -1.00000000 0.00000000
vn 0.00000000 -1.00000000 0.00000000
vn 0.00000000 -1.00000000 0.00000000
vn 0.00000000 -1.00000000 0.00000000
vn 0.00000000 -1.00000000 0.00000000
vn 0.00000000 -1.00000000 0.00000000
vn 0.00000000 -1.00000000 0.00000000
vn 0.00000000 -1.00000000 0.00000000
vn 0.00000000 -1.00000000 0.00000000
vn 0.00000000 -1.00000000 0.00000000
vn 0.00000000 -1.00000000 0.00000000
vn 0.00000000 -1.00000000 0.00000000
vn 0.00000000 -1.00000000 0.00000000
vn 0.00000000 -1.00000000 0.00000000
vn 0.00000000 -1.00000000 0.00000000
vn 0.00000000 -1.00000000 0.00000000
vn 0.00000000 -1.00000000 0.00000000
vn 0.00000000 -1.00000000 0.00000000
vn 0.00000000 -1.00000000 0.00000000
vn 0.00000000 -1.00000000 0.00000000
vn 0.00000000 -1.00000000 0.00000000
vn 0.00000000 -1.00000000 0.00000000
vn 0.00000000 -1.00000000 0.00000000
vn 0.00000000 -1.00000000 0.00000000
vn 0.00000000 -1.00000000 0.00000000
vn 0.00000000 -1.00000000 0.00000000
vn 0.00000000 -1.00000000 0.00000000
vn 0.00000000 -1.00000000 0.00000000
vn 0.00000000 -1.00000000 0.00000000
vn 0.00000000 -1.00000000 0.00000000
vn 0.02513199 -0.88242167 0.46978757
vn -0.02513199 -0.88242167 0.46978757
vn -0.02513199 -0.88242167 0.46978757
vn 0.02513199 -0.88242167 0.46978757
vn -0.07515661 -0.87822193 0.47231102
vn -0.07515661 -0.87822193 0.47231102
vn 0.07515661 -0.87822193 0.47231102
vn 0.07515661 -0.87822193 0.47231102
vn -0.12446541 -0.86986244 0.47733390
vn -0.12446541 -0.86986244 0.47733390
vn 0.12446541 -0.86986244 0.47733390
vn 0.12446541 -0.86986244 0.47733390
vn -0.17258875 -0.85742289 0.48480836
vn -0.17258875 -0.85742289 0.48480836
vn 0.17258875 -0.85742289 0.48480836
vn 0.17258875 -0.85742289 0.48480836
vn -0.21906830 -0.84102160 0.49466324
vn -0.21906830 -0.84102160 0.49466324
vn -0.24178830 -0.83127540 0.50051934
vn -0.26346138 -0.82081497 0.50680465
vn -0.26346138 -0.82081497 0.50680465
vn -0.28622112 -0.80849928 0.51420462
vn 0.21906830 -0.84102160 0.49466324
vn 0.21906830 -0.84102160 0.49466324
vn 0.26346138 -0.82081497 0.50680465
vn 0.24180211 -0.83126915 0.50052315
vn 0.26346138 -0.82081497 0.50680465
vn 0.28623876 -0.80848914 0.51421070
vn 0.30530524 -0.79702049 0.52110177
vn 0.30530524 -0.79702049 0.52110177
vn -0.30534515 -0.79699528 0.52111691
vn -0.30534515 -0.79699528 0.52111691
vn -0.30474186 -0.79737544 0.52088851
vn -0.29647464 -0.80246949 0.51782769
vn 0.30474183 -0.79737544 0.52088851
vn 0.29647464 -0.80246949 0.51782769
vn -0.32950404 -0.78077710 0.53086179
vn -0.34098211 -0.77233970 0.53593147
vn -0.33342364 -0.77795196 0.53255928
vn 0.32950401 -0.78077710 0.53086179
vn 0.33939746 -0.77353472 0.53521347
vn 0.34098211 -0.77233970 0.53593147
vn 0.33342364 -0.77795196 0.53255928
vt 0.03416502 0.46648538
vt 0.03272095 0.45804310
vt 0.03264832 0.45546103
vt 0.03398488 0.46593702
vt 0.55977362 0.29895175
vt 0.51999778 0.29480505
vt 0.96784621 0.00024414
vt 0.60175520 0.30759084
vt 0.64775419 0.32148886
vt 0.70022374 0.34201348
vt 0.76282173 0.37150884
vt 0.80242151 0.39230144
vt 0.84152085 0.41408253
vt 0.93616283 0.47060776
vt 0.93763036 0.47149253
vt 0.94095451 0.47330469
vt 0.94723219 0.47572827
vt 0.96933156 0.45546103
vt 0.96860743 0.46369338
vt 0.96838021 0.46473110
vt 0.96780050 0.46637189
vt 0.94892198 0.47638071
vt 0.95047021 0.47672731
vt 0.95543569 0.47710675
vt 0.95620245 0.47704566
vt 0.95658529 0.47696078
vt 0.96667516 0.46955818
vt 0.96613830 0.47055447
vt 0.96416193 0.47322106
vt 0.96331710 0.47403634
vt 0.96097755 0.47564596
vt 0.95939088 0.47633839
vt 0.03116293 0.00024414
vt 0.48093382 0.29480505
vt 0.44118494 0.29895175
vt 0.39925975 0.30759084
vt 0.35335153 0.32148886
vt 0.30101585 0.34201348
vt 0.23861039 0.37150884
vt 0.19911310 0.39231956
vt 0.16018905 0.41408253
vt 0.06591608 0.47060776
vt 0.05807293 0.47472364
vt 0.05481869 0.47587800
vt 0.05406979 0.47614360
vt 0.04850374 0.47711259
vt 0.04496926 0.47691649
vt 0.04283557 0.47637701
vt 0.04027904 0.47515303
vt 0.03928189 0.47444868
vt 0.03856536 0.47372597
vt 0.03706637 0.47221404
vt 0.03655365 0.47151583
vt 0.03445698 0.46737450
vt 0.48093382 0.29480505
vt 0.51999778 0.29480505
vt 0.53720468 0.73185426
vt 0.46015343 0.73185426
vt 0.55977362 0.29895175
vt 0.61450326 0.73090315
vt 0.38298160 0.73090315
vt 0.44118494 0.29895175
vt 0.60175520 0.30759084
vt 0.69242215 0.72898251
vt 0.30531880 0.72898251
vt 0.39925975 0.30759084
vt 0.64775419 0.32148886
vt 0.77134597 0.72605503
vt 0.22678527 0.72605503
vt 0.35335153 0.32148886
vt 0.70022374 0.34201348
vt 0.85167927 0.72206300
vt 0.89294457 0.71961617
vt 0.76282173 0.37150884
vt 0.93385494 0.71692532
vt 0.80242151 0.39230144
vt 0.14698415 0.72206300
vt 0.30101585 0.34201348
vt 0.23861039 0.37150884
vt 0.10601973 0.71961457
vt 0.06549331 0.71692532
vt 0.19911310 0.39231956
vt 0.00090564 0.67902362
vt 0.16018905 0.41408253
vt 0.84152085 0.41408253
vt 0.99945462 0.67902362
vt 0.99947560 0.68107080
vt 0.99975586 0.71203685
vt 0.00086169 0.68107086
vt 0.00024414 0.71203685
vt 0.99860990 0.59605902
vt 0.93616283 0.47060776
vt 0.99846983 0.58353311
vt 0.00268507 0.59605926
vt 0.05412841 0.49172032
vt 0.06591608 0.47060776
vt 0.00297065 0.58353311
f 5/5/5 6/6/6 7/7/7
f 7/7/7 6/6/6 33/33/33
f 33/33/33 6/6/6 34/34/34
f 33/33/33 34/34/34 35/35/35
f 10/10/10 9/9/9 7/7/7
f 7/7/7 9/9/9 8/8/8
f 7/7/7 8/8/8 5/5/5
f 35/35/35 36/36/36 33/33/33
f 33/33/33 36/36/36 37/37/37
f 33/33/33 37/37/37 38/38/38
f 13/13/13 12/12/12 7/7/7
f 7/7/7 12/12/12 11/11/11
f 7/7/7 11/11/11 10/10/10
f 38/38/38 39/39/39 33/33/33
f 33/33/33 39/39/39 40/40/40
f 33/33/33 40/40/40 41/41/41
f 16/16/16 15/15/15 7/7/7
f 7/7/7 15/15/15 14/14/14
f 7/7/7 14/14/14 13/13/13
f 41/41/41 42/42/42 33/33/33
f 33/33/33 42/42/42 43/43/43
f 33/33/33 43/43/43 44/44/44
f 50/50/50 51/51/51 33/33/33
f 33/33/33 51/51/51 52/52/52
f 16/16/16 7/7/7 17/17/17
f 17/17/17 7/7/7 18/18/18
f 17/17/17 18/18/18 19/19/19
f 27/27/27 28/28/28 26/26/26
f 26/26/26 28/28/28 29/29/29
f 24/24/24 23/23/23 21/21/21
f 4/4/4 2/2/2 1/1/1
f 1/1/1 2/2/2 3/3/3
f 1/1/1 3/3/3 33/33/33
f 27/27/27 26/26/26 21/21/21
f 21/21/21 26/26/26 25/25/25
f 21/21/21 25/25/25 24/24/24
f 19/19/19 20/20/20 17/17/17
f 17/17/17 20/20/20 21/21/21
f 17/17/17 21/21/21 22/22/22
f 22/22/22 21/21/21 23/23/23
f 44/44/44 45/45/45 33/33/33
f 33/33/33 45/45/45 46/46/46
f 33/33/33 46/46/46 47/47/47
f 47/47/47 48/48/48 33/33/33
f 33/33/33 48/48/48 49/49/49
f 33/33/33 49/49/49 50/50/50
f 52/52/52 53/53/53 33/33/33
f 33/33/33 53/53/53 54/54/54
f 33/33/33 54/54/54 1/1/1
f 29/29/29 30/30/30 26/26/26
f 26/26/26 30/30/30 31/31/31
f 26/26/26 31/31/31 32/32/32
f 95/95/95 96/96/96 84/84/84
f 95/95/95 84/84/84 97/97/97
f 90/90/90 89/89/89 81/81/81
f 81/81/81 89/89/89 83/83/83
f 77/77/77 80/80/80 79/79/79
f 79/79/79 80/80/80 81/81/81
f 79/79/79 81/81/81 82/82/82
f 82/82/82 81/81/81 83/83/83
f 82/82/82 83/83/83 84/84/84
f 84/84/84 83/83/83 94/94/94
f 84/84/84 94/94/94 97/97/97
f 79/79/79 78/78/78 77/77/77
f 77/77/77 78/78/78 70/70/70
f 77/77/77 70/70/70 69/69/69
f 69/69/69 70/70/70 66/66/66
f 69/69/69 66/66/66 65/65/65
f 65/65/65 66/66/66 62/62/62
f 65/65/65 62/62/62 61/61/61
f 61/61/61 62/62/62 55/55/55
f 61/61/61 55/55/55 58/58/58
f 58/58/58 55/55/55 57/57/57
f 55/55/55 56/56/56 57/57/57
f 57/57/57 56/56/56 59/59/59
f 57/57/57 59/59/59 60/60/60
f 60/60/60 59/59/59 63/63/63
f 60/60/60 63/63/63 64/64/64
f 64/64/64 63/63/63 67/67/67
f 64/64/64 67/67/67 68/68/68
f 68/68/68 67/67/67 71/71/71
f 68/68/68 71/71/71 72/72/72
f 72/72/72 71/71/71 73/73/73
f 73/73/73 71/71/71 74/74/74
f 73/73/73 74/74/74 75/75/75
f 75/75/75 74/74/74 76/76/76
f 75/75/75 76/76/76 85/85/85
f 85/85/85 92/92/92 93/93/93
f 93/93/93 91/91/91 85/85/85
f 85/85/85 91/91/91 86/86/86
f 85/85/85 86/86/86 75/75/75
f 75/75/75 86/86/86 87/87/87
f 75/75/75 87/87/87 88/88/88
