v -0.14448558 0.26001701 0.01807982
v -0.16176540 0.25667298 0.02059972
v -0.16176540 0.15933795 0.09394694
v -0.10509935 0.16427203 0.09022885
v 0.10509925 0.16427203 0.09022885
v 0.16176529 0.15933795 0.09394694
v 0.16176529 0.25667298 0.02059972
v 0.14396892 0.26011118 0.01800887
v 0.12482006 0.26336387 0.01555779
v 0.10509925 0.26219738 0.01643679
v 0.10566993 0.26615351 0.01345564
v 0.08650844 0.26848099 0.01170176
v 0.07579312 0.26958025 0.01087341
v 0.05684900 0.27116862 0.00967650
v 0.03790811 0.27230313 0.00882157
v 0.01896146 0.27298424 0.00830831
v -0.00000005 0.27321154 0.00813704
v -0.01744650 0.27301911 0.00828203
v -0.03631264 0.27237800 0.00876516
v -0.05515113 0.27128881 0.00958592
v -0.10509935 0.26219738 0.01643679
v -0.07396257 0.26975355 0.01074282
v -0.09274753 0.26777411 0.01223444
v -0.11150655 0.26535237 0.01405934
v -0.13023987 0.26249024 0.01621610
v -0.12385081 0.06362595 0.09571055
v -0.16176540 0.15406708 0.09571055
v -0.12385081 -0.16355531 0.09571055
v -0.16176540 -0.18697798 0.09571055
v 0.12385073 -0.16355531 0.09571055
v 0.16176529 -0.18697798 0.09571055
v 0.12385073 0.06362595 0.09571055
v 0.16176529 0.15406708 0.09571055
vn 0.00000000 0.60181504 0.79863548
vn 0.00000000 0.60181504 0.79863548
vn 0.00000000 0.60181504 0.79863548
vn 0.00000000 0.60181504 0.79863548
vn 0.00000000 0.60181504 0.79863548
vn 0.00000000 0.60181504 0.79863548
vn 0.00000000 0.60181504 0.79863548
vn 0.00000000 0.60181504 0.79863548
vn 0.00000000 0.60181504 0.79863548
vn 0.00000000 0.60181504 0.79863548
vn 0.00000000 0.60181504 0.79863548
vn 0.00000000 0.60181504 0.79863548
vn 0.00000000 0.60181504 0.79863548
vn 0.00000000 0.60181504 0.79863548
vn 0.00000000 0.60181504 0.79863548
vn 0.00000000 0.60181504 0.79863548
vn 0.00000000 0.60181504 0.79863548
vn 0.00000000 0.60181504 0.79863548
vn 0.00000000 0.60181504 0.79863548
vn 0.00000000 0.60181504 0.79863548
vn 0.00000000 0.60181504 0.79863548
vn 0.00000000 0.60181504 0.79863548
vn 0.00000000 0.60181504 0.79863548
vn 0.00000000 0.60181504 0.79863548
vn 0.00000000 0.60181504 0.79863548
vn 0.00000000 -0.00000000 1.00000000
vn 0.00000000 -0.00000000 1.00000000
vn 0.00000000 -0.00000000 1.00000000
vn 0.00000000 -0.00000000 1.00000000
vn 0.00000000 -0.00000000 1.00000000
vn 0.00000000 -0.00000000 1.00000000
vn 0.00000000 -0.00000000 1.00000000
vn 0.00000000 -0.00000000 1.00000000
vt 0.72689795 0.65056247
vt 0.73583114 0.68725586
vt 0.99584961 0.68725586
vt 0.98266882 0.56692654
vt 0.98266882 0.12057346
vt 0.99584961 0.00024414
vt 0.73583114 0.00024414
vt 0.72664642 0.03803438
vt 0.71795726 0.07869667
vt 0.72107333 0.12057346
vt 0.71050507 0.11936164
vt 0.70428741 0.16005075
vt 0.70135093 0.18280458
vt 0.69710785 0.22303200
vt 0.69407713 0.26325268
vt 0.69225758 0.30348557
vt 0.69165039 0.34375000
vt 0.69216442 0.38079727
vt 0.69387710 0.42085910
vt 0.69678676 0.46086234
vt 0.72107333 0.56692654
vt 0.70088804 0.50080812
vt 0.70617586 0.54069769
vt 0.71264517 0.58053213
vt 0.72029102 0.62031198
vt 0.60674495 0.53233683
vt 0.68725586 0.72436523
vt 0.60674495 0.04997617
vt 0.68725586 0.00024414
vt 0.08075505 0.04997617
vt 0.00024414 0.00024414
vt 0.08075505 0.53233683
vt 0.00024414 0.72436523
f 1/1/1 2/2/2 3/3/3
f 25/25/25 4/4/4 24/24/24
f 24/24/24 4/4/4 21/21/21
f 24/24/24 21/21/21 23/23/23
f 25/25/25 1/1/1 4/4/4
f 4/4/4 1/1/1 3/3/3
f 4/4/4 3/3/3 5/5/5
f 5/5/5 3/3/3 6/6/6
f 5/5/5 6/6/6 7/7/7
f 7/7/7 8/8/8 5/5/5
f 5/5/5 8/8/8 9/9/9
f 5/5/5 9/9/9 10/10/10
f 10/10/10 9/9/9 11/11/11
f 10/10/10 11/11/11 12/12/12
f 12/12/12 13/13/13 10/10/10
f 10/10/10 13/13/13 14/14/14
f 10/10/10 14/14/14 15/15/15
f 15/15/15 16/16/16 10/10/10
f 10/10/10 16/16/16 17/17/17
f 10/10/10 17/17/17 18/18/18
f 18/18/18 19/19/19 10/10/10
f 10/10/10 19/19/19 20/20/20
f 10/10/10 20/20/20 21/21/21
f 21/21/21 20/20/20 22/22/22
f 21/21/21 22/22/22 23/23/23
f 26/26/26 27/27/27 28/28/28
f 28/28/28 27/27/27 29/29/29
f 28/28/28 29/29/29 30/30/30
f 30/30/30 29/29/29 31/31/31
f 30/30/30 31/31/31 32/32/32
f 32/32/32 31/31/31 33/33/33
f 32/32/32 33/33/33 26/26/26
f 26/26/26 33/33/33 27/27/27
