v 0.01456714 0.01188950 0.10409553
v 0.01456714 0.01188950 0.10738865
v -0.01456714 0.01188950 0.10738865
v -0.06548563 0.01188950 0.01179483
v -0.06548563 0.01188950 0.10409553
v -0.06945717 0.01188950 0.10012398
v -0.01456714 0.01188950 0.10409553
v 0.06548563 0.01188950 0.01179483
v 0.06636938 0.01188950 0.01189440
v -0.06720882 0.01188950 0.10370222
v -0.06796184 0.01188950 0.10322906
v -0.06935760 0.01188950 0.10100774
v -0.06859071 0.01188950 0.10260020
v -0.06906386 0.01188950 0.10184717
v 0.06945717 0.01188950 0.10012398
v 0.06796184 0.01188950 0.10322906
v 0.06720882 0.01188950 0.10370222
v 0.06859071 0.01188950 0.01329016
v 0.06906386 0.01188950 0.01404318
v 0.06935760 0.01188950 0.01488262
v 0.06945717 0.01188950 0.01576638
v -0.06636938 0.01188950 0.10399596
v -0.06945717 0.01188950 0.01576638
v -0.06935760 0.01188950 0.01488262
v -0.06906386 0.01188950 0.01404318
v 0.06935760 0.01188950 0.10100774
v 0.06906386 0.01188950 0.10184717
v 0.06859071 0.01188950 0.10260020
v 0.06548563 0.01188950 0.10409553
v 0.06636938 0.01188950 0.10399596
v 0.06720882 0.01188950 0.01218813
v 0.06796184 0.01188950 0.01266129
v -0.06859071 0.01188950 0.01329016
v -0.06796184 0.01188950 0.01266129
v -0.06636938 0.01188950 0.01189440
v -0.06720882 0.01188950 0.01218813
vn 0.00000000 -1.00000000 0.00000000
vn 0.00000000 -1.00000000 0.00000000
vn 0.00000000 -1.00000000 0.00000000
vn 0.00000000 -1.00000000 0.00000000
vn 0.00000000 -1.00000000 0.00000000
vn 0.00000000 -1.00000000 0.00000000
vn 0.00000000 -1.00000000 0.00000000
vn 0.00000000 -1.00000000 0.00000000
vn 0.00000000 -1.00000000 0.00000000
vn 0.00000000 -1.00000000 0.00000000
vn 0.00000000 -1.00000000 0.00000000
vn 0.00000000 -1.00000000 0.00000000
vn 0.00000000 -1.00000000 0.00000000
vn 0.00000000 -1.00000000 0.00000000
vn 0.00000000 -1.00000000 0.00000000
vn 0.00000000 -1.00000000 0.00000000
vn 0.00000000 -1.00000000 0.00000000
vn 0.00000000 -1.00000000 0.00000000
vn 0.00000000 -1.00000000 0.00000000
vn 0.00000000 -1.00000000 0.00000000
vn 0.00000000 -1.00000000 0.00000000
vn 0.00000000 -1.00000000 0.00000000
vn 0.00000000 -1.00000000 0.00000000
vn 0.00000000 -1.00000000 0.00000000
vn 0.00000000 -1.00000000 0.00000000
vn 0.00000000 -1.00000000 0.00000000
vn 0.00000000 -1.00000000 0.00000000
vn 0.00000000 -1.00000000 0.00000000
vn 0.00000000 -1.00000000 0.00000000
vn 0.00000000 -1.00000000 0.00000000
vn 0.00000000 -1.00000000 0.00000000
vn 0.00000000 -1.00000000 0.00000000
vn 0.00000000 -1.00000000 0.00000000
vn 0.00000000 -1.00000000 0.00000000
vn 0.00000000 -1.00000000 0.00000000
vn 0.00000000 -1.00000000 0.00000000
f 1//1 2//2 3//3
f 4//4 5//5 6//6
f 5//5 4//4 7//7
f 7//7 4//4 8//8
f 7//7 8//8 9//9
f 10//10 11//11 12//12
f 12//12 11//11 13//13
f 12//12 13//13 14//14
f 15//15 16//16 17//17
f 18//18 19//19 7//7
f 7//7 19//19 20//20
f 7//7 20//20 21//21
f 6//6 5//5 12//12
f 12//12 5//5 22//22
f 12//12 22//22 10//10
f 6//6 23//23 4//4
f 4//4 23//23 24//24
f 4//4 24//24 25//25
f 15//15 26//26 16//16
f 16//16 26//26 27//27
f 16//16 27//27 28//28
f 3//3 7//7 1//1
f 1//1 7//7 21//21
f 1//1 21//21 29//29
f 29//29 21//21 15//15
f 29//29 15//15 30//30
f 30//30 15//15 17//17
f 9//9 31//31 7//7
f 7//7 31//31 32//32
f 7//7 32//32 18//18
f 25//25 33//33 4//4
f 4//4 33//33 34//34
f 4//4 34//34 35//35
f 35//35 34//34 36//36
